<svg xmlns="http://www.w3.org/2000/svg" xmlns:xlink="http://www.w3.org/1999/xlink" viewBox="0 0 472.71 76.61"><defs><style>.cls-1{fill:#cca124;}.cls-2{fill:#1d1d1b;}.cls-3{fill:url(#Degradado_sin_nombre_110);}</style><linearGradient id="Degradado_sin_nombre_110" x1="1.97" y1="66.56" x2="75.65" y2="-7.12" gradientUnits="userSpaceOnUse"><stop offset="0.23" stop-color="#a0721d"/><stop offset="0.74" stop-color="#cca124"/><stop offset="1" stop-color="#cca124"/></linearGradient></defs><title>logo_ureinvited_h</title><g id="Capa_2" data-name="Capa 2"><g id="Capa_1-2" data-name="Capa 1"><path class="cls-1" d="M125.5,17.66V45.54h-7.32l0-2.72a13.44,13.44,0,0,1-2.3,1.51,12.93,12.93,0,0,1-2.58,1.06,11,11,0,0,1-3.3.46,12.36,12.36,0,0,1-4.55-.82A9.9,9.9,0,0,1,102,42.66a10.75,10.75,0,0,1-2.31-3.72A14,14,0,0,1,98.82,34V17.66H107V32.51a5.92,5.92,0,0,0,1.42,4.24,5.34,5.34,0,0,0,7.46,0,5.92,5.92,0,0,0,1.42-4.24V17.66Z"/><path class="cls-1" d="M147.36,17.66v8.49c-.24-.08-.53-.18-.85-.31a8.48,8.48,0,0,0-1-.21,7.46,7.46,0,0,0-1.21-.09,4.88,4.88,0,0,0-3.73,1.52,5.94,5.94,0,0,0-1.42,4.24V45.54H131V17.66h2.8a4.84,4.84,0,0,1,4.48,3A8.35,8.35,0,0,1,140,19.06a8.76,8.76,0,0,1,2.09-1.19,7.31,7.31,0,0,1,2.82-.51,7.79,7.79,0,0,1,1,.06l.75.12Z"/><path class="cls-1" d="M177.47,31.6a7.07,7.07,0,0,1-.06.94c0,.31-.09.6-.12.88s-.09.63-.13.91H158.07a6.49,6.49,0,0,0,2,2.91,5.45,5.45,0,0,0,3.79,1.33,6.34,6.34,0,0,0,2-.27,4.37,4.37,0,0,0,1.3-.64,2.83,2.83,0,0,0,1-.91l8.49.61a12.23,12.23,0,0,1-1.64,3.27,11.94,11.94,0,0,1-2.73,2.82,13,13,0,0,1-3.78,2,15.12,15.12,0,0,1-4.88.73A13,13,0,0,1,158.16,45a14.1,14.1,0,0,1-4.42-3.09,14.77,14.77,0,0,1-3-4.61,14.76,14.76,0,0,1,3.06-16.06,13.94,13.94,0,0,1,4.51-3.09,14.31,14.31,0,0,1,10.88-.09A12.76,12.76,0,0,1,173.5,21a13.94,13.94,0,0,1,2.91,4.61A16.34,16.34,0,0,1,177.47,31.6Zm-7.88-2.42a6.57,6.57,0,0,0-2-3.18A5.93,5.93,0,0,0,160,26a6.5,6.5,0,0,0-2,3.18Z"/><path class="cls-2" d="M181.58,17.36H192V45.54H183.8v-20h-2.22Zm2.07-1.69V7.18h8.49v8.49Z"/><path class="cls-2" d="M224.08,29.18V45.54H215.9V30.69a6,6,0,0,0-1.42-4.24,5.34,5.34,0,0,0-7.46,0,6,6,0,0,0-1.42,4.24V45.54h-8.19V17.66h3.08a4.61,4.61,0,0,1,4.2,2.73,11.28,11.28,0,0,1,2.24-1.52,20,20,0,0,1,2.61-1,11,11,0,0,1,3.33-.48,12.16,12.16,0,0,1,4.55.82A9.87,9.87,0,0,1,221,20.54a10.79,10.79,0,0,1,2.31,3.73A14,14,0,0,1,224.08,29.18Z"/><path class="cls-2" d="M255.62,18.27,245,46.15h-8.48L225.92,18.27h8.79l6.06,18.18,6.06-18.18Z"/><path class="cls-2" d="M257.52,17.36h10.41V45.54h-8.19v-20h-2.22Zm2.07-1.69V7.18h8.49v8.49Z"/><path class="cls-2" d="M284.91,25.24v9.09a4,4,0,0,0,1,2.88,3.44,3.44,0,0,0,2.6,1.06c.33,0,.61,0,.85,0a5.74,5.74,0,0,0,.67-.09,3.8,3.8,0,0,0,.61-.18v7.27a7.26,7.26,0,0,1-1.1.3,11.34,11.34,0,0,1-2.85.31q-4.79,0-7.39-2.64c-1.74-1.76-2.61-4.31-2.61-7.67V25.13l-5.39,0V17.66h5.39V11h8.19v6.67h5.76v7.58Z"/><path class="cls-2" d="M321.8,31.6a7.07,7.07,0,0,1-.06.94c0,.31-.08.6-.12.88s-.08.63-.12.91H302.4a6.49,6.49,0,0,0,2,2.91,5.45,5.45,0,0,0,3.79,1.33,6.34,6.34,0,0,0,2-.27,4.25,4.25,0,0,0,1.3-.64,2.83,2.83,0,0,0,1-.91l8.49.61a12.23,12.23,0,0,1-1.64,3.27,11.75,11.75,0,0,1-2.73,2.82,13,13,0,0,1-3.78,2,15.08,15.08,0,0,1-4.88.73A13,13,0,0,1,302.49,45a14.22,14.22,0,0,1-4.42-3.09,15,15,0,0,1-3-4.61,14.76,14.76,0,0,1,3.06-16.06,14.05,14.05,0,0,1,4.51-3.09,14.31,14.31,0,0,1,10.88-.09A12.76,12.76,0,0,1,317.83,21a13.94,13.94,0,0,1,2.91,4.61A16.34,16.34,0,0,1,321.8,31.6Zm-7.88-2.42A6.57,6.57,0,0,0,312,26a5.93,5.93,0,0,0-7.58,0,6.5,6.5,0,0,0-2,3.18Z"/><path class="cls-2" d="M352.92,7.36V45.54h-3.08a4.6,4.6,0,0,1-4.2-2.72,13.07,13.07,0,0,1-2.12,1.51A11.27,11.27,0,0,1,341,45.39a10.74,10.74,0,0,1-3.28.46,12.16,12.16,0,0,1-5-1.06,13,13,0,0,1-4.15-3,14.73,14.73,0,0,1-2.85-4.52,15.86,15.86,0,0,1,0-11.4,14.68,14.68,0,0,1,2.85-4.51,13,13,0,0,1,4.15-3,12,12,0,0,1,5-1.06,10.81,10.81,0,0,1,2.88.36,11.21,11.21,0,0,1,2.22.85,9.42,9.42,0,0,1,1.87,1.21V7.36ZM345,31.6a6.73,6.73,0,0,0-1.76-4.82,5.93,5.93,0,0,0-8.61,0,6.72,6.72,0,0,0-1.75,4.82,6.71,6.71,0,0,0,1.75,4.82,5.93,5.93,0,0,0,8.61,0A6.71,6.71,0,0,0,345,31.6Z"/><path class="cls-2" d="M359.33,42.87a3.33,3.33,0,0,1,3.38-3.55A3.29,3.29,0,0,1,366,42.87a3.36,3.36,0,1,1-6.71,0Z"/><path class="cls-2" d="M388.87,34.63l8.18.61a16.76,16.76,0,0,1-2.48,5.46,15,15,0,0,1-1.73,2,12.78,12.78,0,0,1-2.33,1.75,12.26,12.26,0,0,1-3,1.25,14.6,14.6,0,0,1-3.75.45A13.73,13.73,0,0,1,378.17,45a14.42,14.42,0,0,1-4.52-3.09,14.85,14.85,0,0,1-3.06-4.61,15.22,15.22,0,0,1,0-11.46,14.8,14.8,0,0,1,3.06-4.6,14.09,14.09,0,0,1,4.52-3.09,13.73,13.73,0,0,1,5.55-1.12,14.6,14.6,0,0,1,3.75.45,12.25,12.25,0,0,1,3,1.24,12.82,12.82,0,0,1,2.33,1.76,14.38,14.38,0,0,1,1.73,2A16.76,16.76,0,0,1,397.05,28l-8.18.6a7.61,7.61,0,0,0-1.09-1.94,7,7,0,0,0-1.61-1.36,4.43,4.43,0,0,0-2.45-.64,5.68,5.68,0,0,0-4.31,1.88,7.16,7.16,0,0,0-1.76,5.09,7.14,7.14,0,0,0,1.76,5.09,5.65,5.65,0,0,0,4.31,1.88,4.68,4.68,0,0,0,2.45-.6,6.44,6.44,0,0,0,1.61-1.34A7.48,7.48,0,0,0,388.87,34.63Z"/><path class="cls-2" d="M428.27,31.6a14.64,14.64,0,0,1-1.12,5.73,14.85,14.85,0,0,1-3.06,4.61A14.42,14.42,0,0,1,419.57,45a14.29,14.29,0,0,1-11.09,0A14.42,14.42,0,0,1,404,41.94a14.85,14.85,0,0,1-3.06-4.61,15.22,15.22,0,0,1,0-11.46,14.8,14.8,0,0,1,3.06-4.6,14.09,14.09,0,0,1,4.52-3.09,14.29,14.29,0,0,1,11.09,0,14.09,14.09,0,0,1,4.52,3.09,14.8,14.8,0,0,1,3.06,4.6A14.64,14.64,0,0,1,428.27,31.6Zm-8.18,0a7.16,7.16,0,0,0-1.76-5.09,5.87,5.87,0,0,0-8.61,0A7.16,7.16,0,0,0,408,31.6a7.14,7.14,0,0,0,1.76,5.09,5.87,5.87,0,0,0,8.61,0A7.14,7.14,0,0,0,420.09,31.6Z"/><path class="cls-2" d="M472.71,28.88V45.54h-8.19V29.78a5,5,0,0,0-1.18-3.57,3.6,3.6,0,0,0-5.51,0,5,5,0,0,0-1.19,3.57V45.54h-8.18V29.78a5,5,0,0,0-1.18-3.57,3.62,3.62,0,0,0-5.52,0,5.09,5.09,0,0,0-1.18,3.57V45.54H432.4V17.66h3.08a4.59,4.59,0,0,1,4.19,2.73,8.93,8.93,0,0,1,1.88-1.52,14.42,14.42,0,0,1,2.21-1,8.29,8.29,0,0,1,2.88-.48,10.34,10.34,0,0,1,3.64.57,12,12,0,0,1,2.49,1.25A6.82,6.82,0,0,1,454.52,21a11.16,11.16,0,0,1,2.25-1.81,15.41,15.41,0,0,1,2.6-1.25A10.4,10.4,0,0,1,470,20.27Q472.71,23.18,472.71,28.88Z"/><path class="cls-3" d="M0,0V54.31H12v22.3l19.3-22.3H82.77V0ZM70.77,6.44,41.39,31.37,12,6.44ZM28.37,47.86,18.46,59.31V47.86h-12V10.18l35,29.63L76.33,10.18V47.86Z"/></g></g></svg>